<?xml version="1.0" standalone="no"?><!DOCTYPE svg PUBLIC "-//W3C//DTD SVG 1.1//EN" "http://www.w3.org/Graphics/SVG/1.1/DTD/svg11.dtd"><svg t="1526530194807" class="icon" style="" viewBox="0 0 1024 1024" version="1.1" xmlns="http://www.w3.org/2000/svg" p-id="9954" data-spm-anchor-id="a313x.7781069.0.i15" xmlns:xlink="http://www.w3.org/1999/xlink" width="20" height="20"><defs><style type="text/css"></style></defs><path d="M921.6 633.6c-23.466667 36.266667-57.6 68.266667-98.133333 93.866667 4.266667 8.533333 6.4 17.066667 10.666666 23.466666 4.266667 6.4 8.533333 12.8 12.8 21.333334 4.266667 6.4 8.533333 10.666667 10.666667 14.933333 2.133333 4.266667 6.4 8.533333 12.8 14.933333 6.4 6.4 10.666667 10.666667 10.666667 12.8 0 0 0 2.133333 2.133333 2.133334 0 2.133333 2.133333 2.133333 2.133333 2.133333l2.133334 2.133333c0 2.133333 2.133333 2.133333 2.133333 2.133334l2.133333 2.133333v10.666667c0 4.266667-4.266667 8.533333-6.4 10.666666-2.133333 6.4-6.4 6.4-10.666666 6.4-17.066667-2.133333-32-4.266667-42.666667-8.533333-51.2-14.933333-98.133333-36.266667-140.8-68.266667-29.866667 6.4-59.733333 8.533333-89.6 8.533334-91.733333 0-170.666667-23.466667-238.933333-70.4 19.2 2.133333 34.133333 2.133333 44.8 2.133333 53.333333 0 106.666667-8.533333 155.733333-23.466667 49.066667-14.933333 93.866667-38.4 134.4-68.266666 42.666667-32 74.666667-70.4 96-110.933334 23.466667-42.666667 34.133333-87.466667 34.133333-134.4 0-27.733333-4.266667-53.333333-10.666666-81.066666 42.666667 25.6 76.8 55.466667 102.4 93.866666 25.6 38.4 38.4 78.933333 38.4 121.6s-12.8 83.2-36.266667 119.466667z m-593.066667-27.733333l-23.466666 17.066666c-10.666667 6.4-21.333333 12.8-32 21.333334l19.2-44.8-51.2-29.866667c-34.133333-19.2-59.733333-42.666667-78.933334-68.266667-19.2-25.6-27.733333-53.333333-27.733333-83.2 0-36.266667 12.8-68.266667 40.533333-100.266666s64-55.466667 110.933334-74.666667c46.933333-19.2 98.133333-27.733333 151.466666-27.733333s104.533333 8.533333 151.466667 27.733333c46.933333 19.2 83.2 42.666667 110.933333 74.666667s40.533333 64 40.533334 100.266666c0 36.266667-12.8 68.266667-40.533334 100.266667-27.733333 32-64 55.466667-110.933333 74.666667-46.933333 17.066667-98.133333 25.6-151.466667 25.6-25.6 0-53.333333-2.133333-81.066666-6.4l-27.733334-6.4z m296.533334 44.8c57.6-23.466667 102.4-55.466667 134.4-98.133334 34.133333-40.533333 49.066667-85.333333 49.066666-134.4s-17.066667-93.866667-49.066666-134.4c-32-40.533333-78.933333-74.666667-134.4-98.133333C567.466667 162.133333 505.6 149.333333 437.333333 149.333333c-68.266667 0-130.133333 12.8-185.6 36.266667-57.6 23.466667-102.4 55.466667-136.533333 98.133333-34.133333 40.533333-49.066667 85.333333-49.066667 134.4 0 40.533333 12.8 81.066667 38.4 117.333334 25.6 36.266667 59.733333 68.266667 102.4 91.733333-4.266667 8.533333-6.4 17.066667-10.666666 23.466667l-12.8 19.2c-6.4 6.4-10.666667 12.8-12.8 17.066666-2.133333 4.266667-6.4 8.533333-12.8 14.933334l-12.8 12.8-2.133334 2.133333-2.133333 2.133333-2.133333 2.133334c-2.133333 2.133333-2.133333 4.266667-2.133334 4.266666l-2.133333 2.133334v10.666666c0 4.266667 2.133333 8.533333 6.4 10.666667 4.266667 2.133333 6.4 4.266667 10.666667 4.266667h2.133333c17.066667-2.133333 32-6.4 44.8-8.533334 53.333333-14.933333 102.4-36.266667 147.2-66.133333 32 6.4 61.866667 8.533333 93.866667 8.533333 66.133333-2.133333 128-12.8 185.6-36.266666z" p-id="9955" fill="#e67e22"></path></svg>